<svg id="Layer_1" data-name="Layer 1" xmlns="http://www.w3.org/2000/svg" viewBox="0 0 2000 2000"><defs><style>.cls-1{fill:#48005f;}</style></defs><path class="cls-1" d="M762.31,103.44S616.87,133,459.94,258.77c-23.64,18.94-51.35,40.75-97,91.18-46.84,51.76-71.49,76.41-137.82,193.67-54.86,97-113.62,257.43-114.48,454.64-.46,105.72,5.46,174.26,43,284.12,67,195.89,169.66,352.13,373.08,486.62,100.51,66.44,267.59,133.94,344,136.41v-2.36a1.7,1.7,0,0,1,2.36-1.58c15.06,6.3,83.91,16.26,150.47,16.26,38.44,0,130.36,4.93,255.81-30.76,67.6-19.24,134.64-44,219.5-91.93C1561,1760,1667,1676.16,1714,1619.58c12.3-14.83,22.06-27.24,46.61-65.09,0,0-56.6,62.5-86.73,89.44-23.58,21.09-50.34,43.22-72.55,60.65s-45.79,37.32-45.79,37.32l-4.36-6.58s18-14.42,44.76-35.57c12.76-10.09,24.65-21.79,31-28,14.42-14.12,24-27.75,20.92-24.58,0,0-17.15,16.52-22.87,21.21L1601,1688l-3.57-5.6,51.58-44.32,1.78-11.92s21.76-23.89,27.84-30.91C1708.9,1560.3,1736,1511,1736,1511a922.09,922.09,0,0,1-94.39,104.58c-68.75,64.8-161.3,134.05-261.87,171.76,0,0-71,30.78-155.6,49.07-58.27,12.58-92.09,14.77-165,13.64,0,0,158.56-4.18,298-62.71,129.82-54.49,207.83-120.12,207.83-120.12s58.66-45,117.81-109.21c11-12,29.78-35.3,39.8-48,4.88-6.18,20.67-28,26.95-37.64,8.59-13.14,25.85-42.72,28.31-52.58,0,0-20.94,31.85-27,40.71-5,7.32-14.88,22.12-20.13,29.29-5.83,8-18.17,23.36-24.27,31.12-5,6.39-20.23,25.51-20.23,25.51l-2-5.84s29-26.66,70.43-93.24c27.55-44.22,65.77-110.92,86.89-173,19-55.87,25.49-103,30.17-134.53,2.72-18.29,4.21-33.12,5.58-55.19,1.14-18.35.47-30.05.35-39.19-.43-31-3.07-45.31-6.07-57.06,0,0-.39,37.4-2.62,71.14-1.92,29.11-5.81,70.3-14.4,110.65-10.1,47.46-11.68,57.65-35.8,120.24-13.74,35.69-29,61.21-43.53,86.08-19.51,33.42-41.34,64.73-41.34,64.73h-3.16a337.76,337.76,0,0,0,16.83-31.31c7.54-15.88,17.42-34.75,22.05-45.55,13.22-30.87,17.75-44.51,21.8-56.64,3.75-11.21,5.15-17.09,8.68-33.39,5.46-25.26,5-39.43,5-39.43.68-1.32-4.42,24.48-12.43,48.33a258,258,0,0,1-12.57,32c-15.91,34.62-39,76.38-68.59,121.4C1673.43,1494.73,1613.94,1554,1573,1595c0,0-6.62-.49-8.09,0,0,0-11-40.46-44.5-40.46-40.46,0-53.59,24-77,56.52-32.19,44.62-101,81-129.28,89.12-20.52,5.86-46.16,10.45-93,12.14-49.94,1.8-103.1-8.33-115.84-15.13-22.42-12-20.36-21-20.7-25.21-1-12.25,32.31-4.16,59.67-4.16,20.23,0,64.73-4,109.23-36.41,39.25-28.55,64.73-85,58.75-118.63,0,0-16.4-9.77-29.72-34.09-7.28-13.29-15.82-43.42-19.69-58.87-3.08-12.33-18.27-37.7-34.43-54.54-9.69-10.1-19.8-19.41-37-26.81-13.62-5.84-39.14-12.43-59.17-14.79,0,0-9.86-76.42,7.4-128.18,0,0-44.37,0-81.35,34.51-15.45,14.42-33.37,28.67-45.68,65.44a11.11,11.11,0,0,1-4.19,5.63,343.89,343.89,0,0,0-53.66,46.74c-22.46,24.27-43.42,58.73-54.75,88.72a3.94,3.94,0,0,1-6.38,1.49c-5.36-5-18.14-15.29-33.92-33.35-15.64-17.89-35.65-40-59.25-88.82,0,0-21-48.81-32.37-100.44-9.85-44.81-33.18-102.21-72.59-154.24C663,1018.48,618.28,979.43,575,953.89c-61.25-36.12-103.54-49.3-172.06-45.35-15,.87-47.33,3.44-59.66,5.91.92-13,37.57-289.93,243.51-456.26,114.71-92.65,210-109.44,281.28-100.94,42.18,5,106.2,20,106.2,20s56.77,14.57,47-24.27c0,0-5-40-50.15-69.33-17.41-11.29-55.08-28.1-90.42-29.87a382.79,382.79,0,0,0-97.95,8.62c-16.23,3.6-47.19,13.94-47.19,13.94l-.3-5.31S885.4,197.6,1072.91,207c147.91,7.4,231.72,29.58,350,91.21,57.72,30.06,133.12,76.42,236.65,194.74,42.61,48.7,76.42,103.53,105,160.31,8.55,17,18.47,41.33,29.71,65.13,9.54,20.18,18.25,39.3,23.09,60.51,0,0-83.81-404.27-519.48-551.27,0,0-90.37-35.88-229.9-40.35-51.4-1.64-110.6,5.49-178.73,14.74a2.33,2.33,0,0,1-1.06-4.51c22.94-7.53,115.7-17.62,167.47-17.62,0,0-12.33-2.47-26.09-4.25-10.82-1.4-37.38-3.15-42.94-3.15H961.11a1.59,1.59,0,0,1-1.59-1.59v-4.28a1.86,1.86,0,0,1,1.51-1.84c3.52-.67,13.32-2.15,30.53-2.15,20.34,0,53.18-4.29,117.84,1.48A1056.89,1056.89,0,0,1,1238.27,184c105.8,23,184.68,62.43,258.63,106.8,37,22.19,123.26,83.82,187.35,160.23,37,44.13,72.81,92.38,107,155.06,16.26,29.82,26.12,54.48,36.6,82.71,0,0,52.59,109.23,60.68,283.18,0,0,7.73-77.23-23.93-208.22-16-66-63.36-173.8-89.34-215-66.35-105.15-95.81-132.39-155.19-190.22-44.27-43.12-102.92-80.88-129.76-97.9-57.49-36.42-170.4-89.15-288.81-109.92-44.77-7.85-94.07-15.25-174.65-12.14,0,0-4.21-6.56-6.51-6.51C981.7,133,849.6,115.26,631.07,226c-142.38,72.17-245.91,193-294.43,260.5C300.47,536.85,254.51,613.71,224.25,705l-4.05-10.55S274.47,540,382,417.73C476.36,310.5,547.85,263.67,604.55,229.16c34-20.67,98.6-49.3,151.39-68.51,64-23.26,141.74-38.16,226.4-46.33,41.81-4,76.85-2.45,104.95-1.84,56,1.21,87,5.89,87,5.89s-66.82-24.79-171.69-21.56c-30.65.94-109.59,9.09-129.44,13.47l-2.47-5.63S994,83.72,1099.84,83.54c0,0-123.07-4.75-182.23,2.64-88.36,11-197.39,29.28-371.49,135.09-69.76,42.4-156.3,120.57-207.8,182.91-46.84,56.69-110.93,155.3-133.11,216.92-24.91,69.2-92.42,214.55-74.89,460.09,10.79,151.25,98.2,331.2,98.2,331.2l-6.06,2.47s-84.9-167.64-97.44-307.93a1149.81,1149.81,0,0,1-3.73-127.12c1.63-65.62,10.49-136,22.29-191.08,7.39-34.51,33.28-131.25,66.07-197,30.9-62,87.48-157.28,153.73-230.59,39-43.2,96.69-96.06,150-134.41,34.69-25,76.14-48,115.86-69C671.1,135.48,733.84,110.18,762.31,103.44Z"/></svg>